<svg width="706" height="285" viewBox="0 0 706 285" fill="none" xmlns="http://www.w3.org/2000/svg">
<g clip-path="url(#clip0_264_38)">
<path d="M126.515 84.0236C139.205 72.002 139.205 50.9943 126.515 38.9727C125.485 37.9966 123.854 37.9966 122.824 38.9727C110.134 50.9943 110.134 72.002 122.824 84.0236C123.854 84.9997 125.485 84.9997 126.515 84.0236Z" fill="#F9C742"/>
<path d="M176.433 92.3556C177.958 92.4358 179.228 91.2055 179.228 89.6811V79.3846C179.228 77.9939 178.172 76.8171 176.781 76.7235C154.77 75.1188 134.832 81.591 124.71 97.8114C114.587 81.591 94.6491 75.1055 72.6385 76.7235C71.2478 76.8305 70.1914 78.0072 70.1914 79.3846V89.6811C70.1914 91.2055 71.4618 92.4224 72.9862 92.3556C104.865 90.7509 114.48 102.411 117.128 121.587C106.136 111.932 90.0357 108.161 72.6385 109.432C71.2478 109.539 70.1914 110.716 70.1914 112.093V122.389C70.1914 123.914 71.4618 125.131 72.9862 125.064C108.155 123.285 116.218 137.66 117.743 160.46V191.056C117.743 191.056 117.743 191.162 117.743 191.216H131.663C131.663 191.216 131.663 191.109 131.663 191.042V160.46C133.188 137.66 141.251 123.285 176.42 125.064C177.944 125.144 179.215 123.914 179.215 122.389V109.632C160.881 107.814 143.765 111.491 132.265 121.6C134.913 102.411 144.514 90.7375 176.407 92.3422L176.433 92.3556Z" fill="#F9C742"/>
<path d="M231.231 172.132C168.529 142.218 80.941 142.098 18.0918 171.663C19.3889 177.039 20.9936 182.294 22.8924 187.403C41.2791 177.668 62.0996 170.955 83.8294 167.264L52.2711 234.941C55.6141 238.524 59.1577 241.948 62.8618 245.17L100.197 165.098C116.457 163.493 133.012 163.533 149.273 165.218L186.554 245.17C190.258 241.948 193.802 238.538 197.145 234.941L165.68 167.478C187.33 171.262 208.057 178.069 226.337 187.897C228.249 182.776 229.894 177.507 231.217 172.118L231.231 172.132Z" fill="#F9C742"/>
<path d="M117.756 164.015V274.764C122.436 276.596 126.996 276.596 131.676 274.764V164.042C127.076 163.895 122.369 163.895 117.756 164.015Z" fill="#F9C742"/>
<path d="M119.856 1.03532C84.8343 16.5604 42.8056 35.1878 7.56995 50.8065C3.17051 52.7589 0.34898 57.1316 0.415841 61.9322C0.817006 92.6748 -2.65976 147.715 5.37692 171.811C19.6718 227.266 66.3273 271.942 122.263 283.897C123.881 284.244 125.566 284.244 127.184 283.897C182.919 271.969 229.481 227.573 243.923 172.346C252.214 148.263 248.777 92.6213 249.071 61.892C249.111 57.1048 246.29 52.7455 241.917 50.8065L129.604 1.03532C126.502 -0.342014 122.958 -0.342014 119.856 1.03532ZM235.338 131.802C236.033 194.33 192.026 252.165 131.69 268.412C86.0913 271.22 37.3364 222.278 22.9078 181.051C10.2176 152.809 14.7642 99.9893 14.2293 67.5485C14.1892 64.8607 15.7403 62.4136 18.2008 61.317C39.4358 51.903 101.79 24.2628 122.036 15.29C123.761 14.5278 125.713 14.5278 127.438 15.29C148.004 24.4099 210.051 51.903 231.38 61.3572C233.8 62.4269 235.351 64.8205 235.351 67.4682V131.788L235.338 131.802Z" fill="#F9C742"/>
</g>
<path d="M292.712 116.495V114.053C294.544 113.972 295.907 113.768 296.802 113.443C297.738 113.076 298.348 112.405 298.633 111.428C298.959 110.452 299.121 109.007 299.121 107.095V78.8957C299.121 76.9832 298.979 75.559 298.694 74.6231C298.409 73.6465 297.86 72.9751 297.046 72.6088C296.232 72.2426 295.012 72.0188 293.384 71.9374V69.4959H330.739L331.471 82.3748H328.907C328.582 80.0554 328.033 78.2039 327.259 76.8204C326.527 75.4369 325.388 74.4399 323.841 73.8296C322.336 73.2192 320.261 72.914 317.616 72.914H309.192C308.46 72.914 308.094 73.2599 308.094 73.9517V91.5914C311.39 91.5914 313.913 91.3879 315.662 90.981C317.412 90.5741 318.653 89.8009 319.386 88.6616C320.118 87.5222 320.586 85.8539 320.79 83.6565H323.048V102.761H320.79C320.545 101.052 320.179 99.689 319.691 98.6717C319.243 97.6137 318.572 96.8202 317.677 96.2912C316.781 95.7215 315.561 95.335 314.014 95.1315C312.468 94.9281 310.495 94.8263 308.094 94.8263V106.668C308.094 108.743 308.297 110.309 308.704 111.367C309.111 112.385 309.945 113.076 311.207 113.443C312.509 113.768 314.442 113.972 317.005 114.053V116.495H292.712ZM349.133 83.5345C351.575 83.5345 353.874 83.9414 356.03 84.7552C358.187 85.569 360.1 86.7288 361.768 88.2343C363.436 89.6992 364.738 91.449 365.674 93.4835C366.651 95.4774 367.139 97.6747 367.139 100.076C367.139 102.558 366.651 104.836 365.674 106.912C364.738 108.987 363.436 110.798 361.768 112.344C360.1 113.85 358.187 115.03 356.03 115.884C353.874 116.698 351.575 117.105 349.133 117.105C346.732 117.105 344.454 116.698 342.297 115.884C340.181 115.03 338.289 113.85 336.621 112.344C334.993 110.798 333.711 108.987 332.775 106.912C331.839 104.836 331.371 102.558 331.371 100.076C331.371 96.8609 332.185 94.0125 333.813 91.5303C335.441 89.0482 337.597 87.095 340.283 85.6708C342.968 84.2466 345.919 83.5345 349.133 83.5345ZM349.133 87.0746C347.506 87.0746 346.061 87.624 344.8 88.7226C343.579 89.8213 342.623 91.3472 341.931 93.3004C341.28 95.2536 340.954 97.5323 340.954 100.137C340.954 104.165 341.687 107.38 343.152 109.78C344.657 112.181 346.651 113.382 349.133 113.382C351.697 113.382 353.731 112.181 355.237 109.78C356.783 107.339 357.556 104.124 357.556 100.137C357.556 97.5323 357.21 95.2536 356.519 93.3004C355.827 91.3472 354.85 89.8213 353.589 88.7226C352.327 87.624 350.842 87.0746 349.133 87.0746ZM388.206 83.5345C390.648 83.5345 392.947 83.9414 395.104 84.7552C397.26 85.569 399.173 86.7288 400.841 88.2343C402.509 89.6992 403.812 91.449 404.747 93.4835C405.724 95.4774 406.212 97.6747 406.212 100.076C406.212 102.558 405.724 104.836 404.747 106.912C403.812 108.987 402.509 110.798 400.841 112.344C399.173 113.85 397.26 115.03 395.104 115.884C392.947 116.698 390.648 117.105 388.206 117.105C385.806 117.105 383.527 116.698 381.37 115.884C379.254 115.03 377.362 113.85 375.694 112.344C374.066 110.798 372.784 108.987 371.849 106.912C370.913 104.836 370.445 102.558 370.445 100.076C370.445 96.8609 371.258 94.0125 372.886 91.5303C374.514 89.0482 376.67 87.095 379.356 85.6708C382.042 84.2466 384.992 83.5345 388.206 83.5345ZM388.206 87.0746C386.579 87.0746 385.134 87.624 383.873 88.7226C382.652 89.8213 381.696 91.3472 381.004 93.3004C380.353 95.2536 380.027 97.5323 380.027 100.137C380.027 104.165 380.76 107.38 382.225 109.78C383.73 112.181 385.724 113.382 388.206 113.382C390.77 113.382 392.805 112.181 394.31 109.78C395.856 107.339 396.63 104.124 396.63 100.137C396.63 97.5323 396.284 95.2536 395.592 93.3004C394.9 91.3472 393.924 89.8213 392.662 88.7226C391.401 87.624 389.915 87.0746 388.206 87.0746ZM425.449 117.105C422.356 117.105 419.609 116.413 417.209 115.03C414.849 113.605 412.997 111.652 411.654 109.17C410.311 106.647 409.64 103.778 409.64 100.564C409.64 97.3085 410.311 94.3991 411.654 91.8355C412.997 89.272 414.828 87.2577 417.148 85.7928C419.508 84.2873 422.153 83.5345 425.082 83.5345C427.117 83.5345 428.928 83.8397 430.515 84.45C432.102 85.0604 433.465 86.098 434.604 87.5629H434.848V82.3748C434.848 79.974 434.808 77.9191 434.726 76.21C434.686 74.4603 434.604 73.3209 434.482 72.7919C434.319 71.9374 433.709 71.3271 432.651 70.9608C431.593 70.5539 429.986 70.3505 427.829 70.3505V68.2752L443.271 65.8337V100.747C443.271 103.758 443.292 106.098 443.332 107.766C443.414 109.435 443.536 110.696 443.699 111.551C443.902 112.608 444.268 113.3 444.797 113.626C445.326 113.911 446.466 114.053 448.215 114.053V116.433L436.618 117.105V112.588H436.374C434.991 114.094 433.363 115.233 431.491 116.006C429.66 116.739 427.646 117.105 425.449 117.105ZM434.726 101.357V98.9769C434.726 97.4306 434.563 96.0064 434.238 94.7043C433.912 93.3614 433.424 92.1814 432.773 91.1641C432.041 89.9841 431.105 89.0889 429.965 88.4785C428.826 87.8681 427.605 87.5629 426.303 87.5629C423.943 87.5629 422.112 88.6819 420.81 90.92C419.548 93.1173 418.918 96.2912 418.918 100.442C418.918 104.633 419.548 107.888 420.81 110.208C422.071 112.486 423.882 113.626 426.242 113.626C427.585 113.626 428.867 113.28 430.087 112.588C431.308 111.896 432.305 110.96 433.078 109.78C433.648 108.885 434.055 107.787 434.299 106.484C434.584 105.142 434.726 103.433 434.726 101.357ZM467.623 116.495L466.707 100.93H469.088C469.657 104.755 471.204 107.787 473.727 110.025C476.29 112.263 479.403 113.382 483.065 113.382C486.117 113.382 488.579 112.69 490.451 111.306C492.323 109.882 493.258 108.051 493.258 105.813C493.258 104.511 492.953 103.412 492.343 102.517C491.773 101.622 490.654 100.747 488.986 99.8924C487.358 98.9972 484.957 97.9596 481.783 96.7795C478.65 95.5588 476.046 94.216 473.971 92.7511C471.895 91.2862 470.349 89.6382 469.332 87.8071C468.315 85.976 467.806 83.9821 467.806 81.8254C467.806 79.2619 468.437 77.0239 469.698 75.1114C471 73.1582 472.77 71.6322 475.008 70.5336C477.287 69.4349 479.912 68.8856 482.882 68.8856C486.911 68.8856 490.675 70.1877 494.174 72.7919L495.273 69.7401H496.738L497.409 82.9241H495.029C494.052 79.5874 492.526 77.0442 490.451 75.2945C488.375 73.504 485.975 72.6088 483.248 72.6088C480.766 72.6088 478.732 73.2396 477.145 74.501C475.558 75.7217 474.764 77.3087 474.764 79.2619C474.764 80.4012 475.029 81.3982 475.558 82.2527C476.127 83.0665 477.165 83.8804 478.671 84.6942C480.176 85.4673 482.333 86.3829 485.141 87.4408C488.925 88.865 491.997 90.3706 494.357 91.9576C496.717 93.5039 498.426 95.1926 499.484 97.0237C500.583 98.8141 501.132 100.849 501.132 103.127C501.132 105.854 500.359 108.275 498.813 110.391C497.267 112.507 495.13 114.155 492.404 115.335C489.678 116.515 486.524 117.105 482.943 117.105C480.542 117.105 478.345 116.779 476.351 116.128C474.357 115.437 472.343 114.338 470.308 112.832L469.088 116.495H467.623ZM530.313 117.105C528.441 117.105 526.997 116.556 525.98 115.457C525.003 114.318 524.515 112.69 524.515 110.574H524.209C523.111 112.608 521.605 114.195 519.693 115.335C517.78 116.474 515.685 117.044 513.406 117.044C511.534 117.044 509.947 116.698 508.645 116.006C507.343 115.274 506.366 114.338 505.715 113.199C505.064 112.059 504.739 110.838 504.739 109.536C504.739 107.542 505.552 105.772 507.18 104.226C508.848 102.639 511.493 101.072 515.115 99.5262L523.66 95.864V93.3004C523.66 90.981 523.233 89.272 522.378 88.1733C521.565 87.0746 520.303 86.5253 518.594 86.5253C517.414 86.5253 516.519 86.8305 515.908 87.4408C515.298 88.0105 514.708 89.0685 514.138 90.6148C513.813 91.5507 513.304 92.3238 512.612 92.9342C511.921 93.5446 511.005 93.8497 509.866 93.8497C508.726 93.8497 507.831 93.5242 507.18 92.8732C506.57 92.1814 506.265 91.2658 506.265 90.1265C506.265 88.0512 507.343 86.4439 509.5 85.3045C511.656 84.1245 514.83 83.5345 519.021 83.5345C523.66 83.5345 526.956 84.3483 528.909 85.976C530.863 87.6036 531.839 90.3706 531.839 94.277V107.644C531.839 109.435 532.002 110.757 532.327 111.612C532.694 112.425 533.263 112.832 534.036 112.832C534.362 112.832 534.688 112.771 535.013 112.649C535.379 112.527 535.725 112.324 536.051 112.039L536.966 113.809C536.437 114.785 535.562 115.579 534.342 116.189C533.121 116.8 531.778 117.105 530.313 117.105ZM517.19 111.367C518.33 111.367 519.388 111.083 520.364 110.513C521.341 109.943 522.134 109.17 522.745 108.193C523.355 107.176 523.66 106.078 523.66 104.897V99.0989C521.097 100.32 519.062 101.398 517.556 102.334C516.051 103.27 514.973 104.165 514.321 105.02C513.67 105.874 513.345 106.79 513.345 107.766C513.345 108.865 513.691 109.74 514.383 110.391C515.074 111.042 516.01 111.367 517.19 111.367ZM538.628 116.495V114.053C540.255 113.972 541.456 113.768 542.229 113.443C543.002 113.076 543.511 112.405 543.755 111.428C543.999 110.411 544.121 108.885 544.121 106.851V87.5019H537.529V84.1448H544.121V80.7268C544.121 77.7563 544.772 75.1724 546.074 72.9751C547.376 70.737 549.187 68.9873 551.506 67.7259C553.826 66.4644 556.511 65.8337 559.563 65.8337C562.33 65.8337 564.609 66.322 566.399 67.2986C568.19 68.2752 569.085 69.5163 569.085 71.0219C569.085 71.9171 568.739 72.6902 568.047 73.3413C567.356 73.9517 566.481 74.2568 565.423 74.2568C564.406 74.2568 563.653 73.9313 563.165 73.2802C562.676 72.6292 561.964 71.8154 561.028 70.8388C560.336 70.1063 559.767 69.6587 559.319 69.4959C558.872 69.3332 558.485 69.2518 558.159 69.2518C557.386 69.2518 556.613 69.4553 555.84 69.8622C555.067 70.2284 554.416 70.8184 553.887 71.6322C553.358 72.4461 553.012 73.4837 552.849 74.7451C552.686 76.0066 552.605 77.6749 552.605 79.7502V84.1448H562.92V87.5019H552.605V106.362C552.605 108.397 552.788 109.964 553.154 111.062C553.521 112.161 554.172 112.934 555.108 113.382C556.084 113.789 557.468 114.012 559.258 114.053V116.495H538.628ZM592.748 108.682L594.457 110.818C590.755 115.009 586.136 117.105 580.602 117.105C577.265 117.105 574.336 116.413 571.813 115.03C569.29 113.646 567.316 111.734 565.892 109.292C564.509 106.81 563.817 103.962 563.817 100.747C563.817 97.3695 564.549 94.3991 566.014 91.8355C567.52 89.2313 569.595 87.1967 572.24 85.7318C574.885 84.2669 577.916 83.5345 581.335 83.5345C585.648 83.5345 589.005 84.7145 591.406 87.0746C593.806 89.394 595.007 92.629 595.007 96.7795C595.007 97.4306 594.905 97.8375 594.702 98.0003C594.498 98.1223 593.928 98.1834 592.993 98.1834H573.339C573.257 98.3868 573.196 98.6513 573.156 98.9769C573.115 99.3024 573.094 99.7093 573.094 100.198C573.094 102.843 573.481 105.142 574.254 107.095C575.068 109.007 576.187 110.493 577.611 111.551C579.076 112.608 580.785 113.137 582.738 113.137C584.447 113.137 586.136 112.751 587.804 111.978C589.513 111.205 591.161 110.106 592.748 108.682ZM573.766 94.7653H582.616C584.285 94.7653 585.343 94.6839 585.79 94.5212C586.238 94.3177 586.462 93.8701 586.462 93.1783C586.462 91.3879 585.953 89.923 584.936 88.7837C583.918 87.6443 582.637 87.0746 581.09 87.0746C579.341 87.0746 577.774 87.8071 576.391 89.272C575.048 90.6962 574.173 92.5273 573.766 94.7653ZM601.963 87.5019H597.507V84.7552C599.908 84.0635 601.942 83.0055 603.611 81.5813C605.279 80.1571 606.52 78.5498 607.334 76.7594H610.447V84.1448H617.466V87.5019H610.447V106.24C610.447 108.722 610.732 110.513 611.301 111.612C611.871 112.67 612.787 113.199 614.048 113.199C614.862 113.199 615.554 113.036 616.123 112.71C616.734 112.344 617.242 111.774 617.649 111.001L618.931 112.771C617.792 115.66 615.106 117.105 610.874 117.105C608.066 117.105 605.869 116.454 604.282 115.152C602.736 113.85 601.963 112.018 601.963 109.658V87.5019ZM649.562 96.7795L635.584 126.077C634.73 127.868 633.427 129.353 631.678 130.533C629.928 131.754 628.158 132.364 626.367 132.364C625.025 132.364 623.946 132.039 623.132 131.388C622.319 130.736 621.912 129.862 621.912 128.763C621.912 127.746 622.258 126.952 622.949 126.383C623.682 125.813 624.842 125.467 626.429 125.345C628.3 125.182 629.806 124.816 630.945 124.246C632.085 123.677 632.919 122.903 633.448 121.927L635.096 118.753L624.292 92.0186C623.682 90.4317 623.132 89.272 622.644 88.5395C622.197 87.7664 621.668 87.2577 621.057 87.0136C620.447 86.7694 619.613 86.627 618.555 86.5863V84.1448H637.049V86.5863C635.462 86.5863 634.343 86.7491 633.692 87.0746C633.082 87.3595 632.776 87.9088 632.776 88.7226C632.776 89.0075 632.817 89.3737 632.898 89.8213C633.021 90.2689 633.163 90.7165 633.326 91.1641L639.551 108.987H639.796L645.045 97.0847C645.777 95.3757 646.327 94.0532 646.693 93.1173C647.1 92.1407 647.364 91.3676 647.486 90.7979C647.649 90.2282 647.73 89.7196 647.73 89.272C647.73 88.214 647.425 87.5019 646.815 87.1357C646.245 86.7694 645.065 86.5863 643.275 86.5863V84.1448H657.985V86.5863C657.212 86.5863 656.52 86.7084 655.909 86.9526C655.34 87.156 654.77 87.6036 654.2 88.2954C653.631 88.9871 652.98 90.0044 652.247 91.3472C651.515 92.69 650.62 94.5008 649.562 96.7795ZM289.783 183.495V181.053C291.736 180.85 293.221 180.422 294.238 179.771C295.256 179.079 296.11 177.859 296.802 176.109L312.855 135.886H317.371L331.959 171.531C332.814 173.606 333.546 175.254 334.157 176.475C334.767 177.655 335.398 178.551 336.049 179.161C336.7 179.771 337.453 180.199 338.307 180.443C339.202 180.687 340.342 180.87 341.725 180.992V183.495H318.653V180.992C320.606 180.911 322.01 180.707 322.865 180.382C323.719 180.056 324.147 179.405 324.147 178.428C324.147 177.859 324.004 177.126 323.719 176.231C323.434 175.295 323.048 174.197 322.56 172.935L321.156 169.273H303.882C302.906 171.47 302.173 173.301 301.685 174.766C301.237 176.231 301.014 177.391 301.014 178.245C301.014 179.466 301.461 180.239 302.356 180.565C303.292 180.89 304.676 181.053 306.507 181.053V183.495H289.783ZM305.286 165.611H319.813L312.794 147.116H312.55L305.286 165.611ZM354.457 165.366V173.423C354.457 175.661 354.559 177.309 354.762 178.367C354.966 179.425 355.434 180.117 356.166 180.443C356.899 180.727 358.079 180.931 359.706 181.053V183.495H340.419V181.053C342.046 180.931 343.247 180.707 344.02 180.382C344.793 180.056 345.302 179.405 345.546 178.428C345.79 177.452 345.912 175.946 345.912 173.912V166.343C345.912 164.024 345.871 162.091 345.79 160.545C345.749 158.958 345.648 157.9 345.485 157.371C345.241 156.313 344.793 155.641 344.142 155.356C343.532 155.072 342.25 154.929 340.297 154.929V152.854L352.077 150.534L352.809 155.845H353.175C354.884 153.932 356.614 152.569 358.364 151.755C360.113 150.941 362.107 150.534 364.345 150.534C367.031 150.534 369.249 151.002 370.998 151.938C372.748 152.874 374.07 154.217 374.966 155.967H375.21C376.675 154.258 378.424 152.935 380.459 151.999C382.534 151.023 384.711 150.534 386.99 150.534C389.391 150.534 391.507 150.84 393.338 151.45C395.169 152.06 396.593 152.935 397.61 154.075C398.424 154.97 399.014 156.191 399.381 157.737C399.787 159.283 399.991 161.379 399.991 164.024V173.423C399.991 175.661 400.093 177.309 400.296 178.367C400.54 179.385 401.029 180.056 401.761 180.382C402.534 180.707 403.714 180.931 405.301 181.053V183.495H386.013V181.053C387.641 180.972 388.841 180.768 389.615 180.443C390.388 180.117 390.876 179.466 391.079 178.489C391.324 177.472 391.446 175.946 391.446 173.912V165.916C391.446 161.684 390.937 158.734 389.92 157.065C388.902 155.356 387.132 154.502 384.61 154.502C383.185 154.502 382.005 154.848 381.069 155.54C380.174 156.231 379.421 157.126 378.811 158.225C378.485 158.836 378.201 159.527 377.957 160.3C377.712 161.074 377.529 161.887 377.407 162.742C377.285 163.556 377.224 164.431 377.224 165.366V173.423C377.224 175.661 377.326 177.309 377.529 178.367C377.733 179.385 378.201 180.056 378.933 180.382C379.706 180.707 380.927 180.931 382.595 181.053V183.495H363.247V181.053C364.874 180.931 366.075 180.707 366.848 180.382C367.621 180.056 368.109 179.405 368.313 178.428C368.557 177.452 368.679 175.946 368.679 173.912V165.916C368.679 163.067 368.455 160.809 368.007 159.141C367.56 157.472 366.827 156.292 365.81 155.601C364.793 154.868 363.389 154.502 361.599 154.502C360.256 154.502 359.137 154.827 358.242 155.478C357.387 156.13 356.675 157.004 356.105 158.103C355.78 158.754 355.475 159.466 355.19 160.239C354.946 161.013 354.762 161.847 354.64 162.742C354.518 163.596 354.457 164.471 354.457 165.366ZM427.973 184.166C425.735 184.166 423.619 183.739 421.625 182.884C419.672 181.989 418.105 180.829 416.925 179.405L412.287 183.495H410.211V147.177C410.211 143.352 409.947 140.728 409.418 139.304C409.255 138.897 409.052 138.592 408.807 138.388C408.563 138.144 408.156 137.961 407.587 137.839C407.017 137.676 406.142 137.513 404.962 137.35V135.275L418.634 132.834V155.356H418.879C419.937 153.81 421.3 152.63 422.968 151.816C424.636 150.962 426.529 150.534 428.644 150.534C431.534 150.534 434.117 151.287 436.396 152.793C438.675 154.258 440.486 156.252 441.828 158.774C443.171 161.297 443.843 164.125 443.843 167.259C443.843 170.473 443.11 173.362 441.645 175.926C440.221 178.489 438.309 180.504 435.908 181.969C433.507 183.433 430.862 184.166 427.973 184.166ZM427.119 180.626C428.746 180.626 430.109 180.137 431.208 179.161C432.307 178.144 433.141 176.658 433.711 174.705C434.28 172.711 434.565 170.27 434.565 167.381C434.565 164.573 434.28 162.213 433.711 160.3C433.182 158.347 432.368 156.882 431.269 155.906C430.17 154.888 428.787 154.38 427.119 154.38C425.654 154.38 424.29 154.787 423.029 155.601C421.808 156.374 420.852 157.472 420.16 158.897C419.224 160.85 418.756 163.312 418.756 166.282V170.127C418.756 172.121 419.123 173.912 419.855 175.499C420.588 177.086 421.585 178.347 422.846 179.283C424.107 180.178 425.532 180.626 427.119 180.626ZM472.581 184.105C470.709 184.105 469.264 183.556 468.247 182.457C467.27 181.318 466.782 179.69 466.782 177.574H466.477C465.378 179.608 463.873 181.195 461.96 182.335C460.048 183.474 457.952 184.044 455.673 184.044C453.802 184.044 452.215 183.698 450.913 183.006C449.61 182.274 448.634 181.338 447.983 180.199C447.332 179.059 447.006 177.838 447.006 176.536C447.006 174.542 447.82 172.772 449.448 171.226C451.116 169.639 453.761 168.072 457.382 166.526L465.928 162.864V160.3C465.928 157.981 465.5 156.272 464.646 155.173C463.832 154.075 462.571 153.525 460.862 153.525C459.682 153.525 458.786 153.83 458.176 154.441C457.566 155.011 456.976 156.069 456.406 157.615C456.08 158.551 455.572 159.324 454.88 159.934C454.188 160.545 453.273 160.85 452.133 160.85C450.994 160.85 450.099 160.524 449.448 159.873C448.837 159.181 448.532 158.266 448.532 157.126C448.532 155.051 449.61 153.444 451.767 152.305C453.924 151.124 457.098 150.534 461.289 150.534C465.928 150.534 469.224 151.348 471.177 152.976C473.13 154.604 474.107 157.371 474.107 161.277V174.644C474.107 176.435 474.269 177.757 474.595 178.612C474.961 179.425 475.531 179.832 476.304 179.832C476.629 179.832 476.955 179.771 477.281 179.649C477.647 179.527 477.993 179.324 478.318 179.039L479.234 180.809C478.705 181.785 477.83 182.579 476.609 183.189C475.388 183.8 474.046 184.105 472.581 184.105ZM459.458 178.367C460.597 178.367 461.655 178.083 462.632 177.513C463.608 176.943 464.402 176.17 465.012 175.193C465.622 174.176 465.928 173.078 465.928 171.897V166.099C463.364 167.32 461.33 168.398 459.824 169.334C458.318 170.27 457.24 171.165 456.589 172.02C455.938 172.874 455.612 173.79 455.612 174.766C455.612 175.865 455.958 176.74 456.65 177.391C457.342 178.042 458.278 178.367 459.458 178.367ZM485.29 181.358L483.947 183.495H482.055V172.386H484.618C485.31 175.275 486.307 177.411 487.609 178.795C488.911 180.137 490.6 180.809 492.675 180.809C494.181 180.809 495.341 180.504 496.154 179.893C497.009 179.242 497.436 178.367 497.436 177.269C497.436 176.496 497.212 175.763 496.765 175.071C496.317 174.339 495.605 173.606 494.628 172.874C493.693 172.101 492.472 171.307 490.966 170.494C488.932 169.354 487.263 168.256 485.961 167.198C484.7 166.099 483.764 164.96 483.153 163.78C482.584 162.599 482.299 161.318 482.299 159.934C482.299 158.103 482.726 156.475 483.581 155.051C484.476 153.627 485.676 152.508 487.182 151.694C488.688 150.88 490.376 150.473 492.248 150.473C493.509 150.473 494.771 150.657 496.032 151.023C497.294 151.389 498.372 151.898 499.267 152.549L500.366 151.084H501.953V160.3H499.572C498.637 157.981 497.66 156.313 496.643 155.295C495.666 154.278 494.466 153.769 493.041 153.769C491.902 153.769 490.987 154.075 490.295 154.685C489.644 155.295 489.318 156.109 489.318 157.126C489.318 158.266 489.827 159.344 490.844 160.361C491.861 161.379 493.509 162.498 495.788 163.718C497.985 164.899 499.756 166.058 501.098 167.198C502.482 168.337 503.479 169.517 504.089 170.738C504.7 171.958 505.005 173.301 505.005 174.766C505.005 177.574 503.987 179.832 501.953 181.541C499.959 183.25 497.273 184.105 493.896 184.105C492.146 184.105 490.519 183.881 489.013 183.433C487.507 182.945 486.266 182.253 485.29 181.358ZM512.501 181.358L511.159 183.495H509.266V172.386H511.83C512.522 175.275 513.519 177.411 514.821 178.795C516.123 180.137 517.812 180.809 519.887 180.809C521.392 180.809 522.552 180.504 523.366 179.893C524.22 179.242 524.648 178.367 524.648 177.269C524.648 176.496 524.424 175.763 523.976 175.071C523.529 174.339 522.817 173.606 521.84 172.874C520.904 172.101 519.683 171.307 518.178 170.494C516.143 169.354 514.475 168.256 513.173 167.198C511.911 166.099 510.975 164.96 510.365 163.78C509.795 162.599 509.511 161.318 509.511 159.934C509.511 158.103 509.938 156.475 510.792 155.051C511.688 153.627 512.888 152.508 514.393 151.694C515.899 150.88 517.588 150.473 519.46 150.473C520.721 150.473 521.982 150.657 523.244 151.023C524.505 151.389 525.584 151.898 526.479 152.549L527.577 151.084H529.164V160.3H526.784C525.848 157.981 524.872 156.313 523.854 155.295C522.878 154.278 521.677 153.769 520.253 153.769C519.114 153.769 518.198 154.075 517.506 154.685C516.855 155.295 516.53 156.109 516.53 157.126C516.53 158.266 517.038 159.344 518.056 160.361C519.073 161.379 520.721 162.498 523 163.718C525.197 164.899 526.967 166.058 528.31 167.198C529.693 168.337 530.69 169.517 531.301 170.738C531.911 171.958 532.216 173.301 532.216 174.766C532.216 177.574 531.199 179.832 529.164 181.541C527.171 183.25 524.485 184.105 521.108 184.105C519.358 184.105 517.73 183.881 516.225 183.433C514.719 182.945 513.478 182.253 512.501 181.358ZM560.832 184.105C558.96 184.105 557.515 183.556 556.498 182.457C555.522 181.318 555.033 179.69 555.033 177.574H554.728C553.629 179.608 552.124 181.195 550.211 182.335C548.299 183.474 546.203 184.044 543.924 184.044C542.053 184.044 540.466 183.698 539.164 183.006C537.861 182.274 536.885 181.338 536.234 180.199C535.583 179.059 535.257 177.838 535.257 176.536C535.257 174.542 536.071 172.772 537.699 171.226C539.367 169.639 542.012 168.072 545.634 166.526L554.179 162.864V160.3C554.179 157.981 553.751 156.272 552.897 155.173C552.083 154.075 550.822 153.525 549.113 153.525C547.933 153.525 547.037 153.83 546.427 154.441C545.817 155.011 545.227 156.069 544.657 157.615C544.331 158.551 543.823 159.324 543.131 159.934C542.439 160.545 541.524 160.85 540.384 160.85C539.245 160.85 538.35 160.524 537.699 159.873C537.088 159.181 536.783 158.266 536.783 157.126C536.783 155.051 537.861 153.444 540.018 152.305C542.175 151.124 545.349 150.534 549.54 150.534C554.179 150.534 557.475 151.348 559.428 152.976C561.381 154.604 562.358 157.371 562.358 161.277V174.644C562.358 176.435 562.52 177.757 562.846 178.612C563.212 179.425 563.782 179.832 564.555 179.832C564.881 179.832 565.206 179.771 565.532 179.649C565.898 179.527 566.244 179.324 566.569 179.039L567.485 180.809C566.956 181.785 566.081 182.579 564.86 183.189C563.639 183.8 562.297 184.105 560.832 184.105ZM547.709 178.367C548.848 178.367 549.906 178.083 550.883 177.513C551.859 176.943 552.653 176.17 553.263 175.193C553.874 174.176 554.179 173.078 554.179 171.897V166.099C551.615 167.32 549.581 168.398 548.075 169.334C546.569 170.27 545.491 171.165 544.84 172.02C544.189 172.874 543.863 173.79 543.863 174.766C543.863 175.865 544.209 176.74 544.901 177.391C545.593 178.042 546.529 178.367 547.709 178.367ZM585.199 184.105C582.106 184.105 579.36 183.413 576.959 182.03C574.599 180.605 572.747 178.652 571.405 176.17C570.062 173.647 569.39 170.778 569.39 167.564C569.39 164.309 570.062 161.399 571.405 158.836C572.747 156.272 574.578 154.258 576.898 152.793C579.258 151.287 581.903 150.534 584.833 150.534C586.867 150.534 588.678 150.84 590.265 151.45C591.852 152.06 593.215 153.098 594.354 154.563H594.599V149.375C594.599 146.974 594.558 144.919 594.477 143.21C594.436 141.46 594.354 140.321 594.232 139.792C594.07 138.937 593.459 138.327 592.401 137.961C591.343 137.554 589.736 137.35 587.579 137.35V135.275L603.022 132.834V167.747C603.022 170.758 603.042 173.098 603.083 174.766C603.164 176.435 603.286 177.696 603.449 178.551C603.652 179.608 604.019 180.3 604.548 180.626C605.077 180.911 606.216 181.053 607.966 181.053V183.433L596.369 184.105V179.588H596.125C594.741 181.094 593.113 182.233 591.242 183.006C589.41 183.739 587.396 184.105 585.199 184.105ZM594.477 168.357V165.977C594.477 164.431 594.314 163.006 593.988 161.704C593.663 160.361 593.174 159.181 592.523 158.164C591.791 156.984 590.855 156.089 589.716 155.478C588.576 154.868 587.356 154.563 586.053 154.563C583.693 154.563 581.862 155.682 580.56 157.92C579.299 160.117 578.668 163.291 578.668 167.442C578.668 171.633 579.299 174.888 580.56 177.208C581.822 179.486 583.632 180.626 585.992 180.626C587.335 180.626 588.617 180.28 589.838 179.588C591.058 178.896 592.055 177.96 592.829 176.78C593.398 175.885 593.805 174.787 594.049 173.484C594.334 172.142 594.477 170.433 594.477 168.357ZM628.19 150.534C630.631 150.534 632.93 150.941 635.087 151.755C637.243 152.569 639.156 153.729 640.824 155.234C642.493 156.699 643.795 158.449 644.731 160.484C645.707 162.477 646.195 164.675 646.195 167.076C646.195 169.558 645.707 171.836 644.731 173.912C643.795 175.987 642.493 177.798 640.824 179.344C639.156 180.85 637.243 182.03 635.087 182.884C632.93 183.698 630.631 184.105 628.19 184.105C625.789 184.105 623.51 183.698 621.353 182.884C619.237 182.03 617.345 180.85 615.677 179.344C614.049 177.798 612.767 175.987 611.832 173.912C610.896 171.836 610.428 169.558 610.428 167.076C610.428 163.861 611.242 161.013 612.869 158.53C614.497 156.048 616.654 154.095 619.339 152.671C622.025 151.247 624.975 150.534 628.19 150.534ZM628.19 154.075C626.562 154.075 625.117 154.624 623.856 155.723C622.635 156.821 621.679 158.347 620.987 160.3C620.336 162.254 620.011 164.532 620.011 167.137C620.011 171.165 620.743 174.38 622.208 176.78C623.713 179.181 625.707 180.382 628.19 180.382C630.753 180.382 632.788 179.181 634.293 176.78C635.84 174.339 636.613 171.124 636.613 167.137C636.613 164.532 636.267 162.254 635.575 160.3C634.883 158.347 633.907 156.821 632.645 155.723C631.384 154.624 629.899 154.075 628.19 154.075ZM662.99 171.104V174.034C662.99 176.109 663.133 177.655 663.417 178.673C663.702 179.649 664.313 180.28 665.249 180.565C666.184 180.85 667.588 181.012 669.46 181.053V183.495H649.074V181.053C650.742 180.931 651.942 180.707 652.675 180.382C653.448 180.056 653.936 179.405 654.14 178.428C654.384 177.452 654.506 175.946 654.506 173.912V166.465C654.506 163.942 654.425 161.928 654.262 160.422C654.14 158.876 653.875 157.717 653.468 156.943C653.102 156.13 652.533 155.601 651.759 155.356C651.027 155.072 650.05 154.929 648.83 154.929V152.793L661.037 150.534L662.014 157.554H662.258C663.356 155.397 664.801 153.688 666.591 152.427C668.382 151.165 670.274 150.534 672.268 150.534C673.814 150.534 675.076 150.921 676.052 151.694C677.029 152.467 677.517 153.444 677.517 154.624C677.517 155.926 677.13 157.025 676.357 157.92C675.625 158.815 674.608 159.263 673.305 159.263C672.492 159.263 671.78 159.059 671.169 158.652C670.599 158.245 670.071 157.839 669.582 157.432C669.094 157.025 668.565 156.821 667.995 156.821C667.222 156.821 666.49 157.33 665.798 158.347C665.106 159.365 664.536 160.728 664.089 162.437C663.763 163.657 663.499 165.041 663.295 166.587C663.092 168.093 662.99 169.598 662.99 171.104ZM682.952 181.358L681.609 183.495H679.717V172.386H682.281C682.973 175.275 683.969 177.411 685.272 178.795C686.574 180.137 688.262 180.809 690.338 180.809C691.843 180.809 693.003 180.504 693.817 179.893C694.671 179.242 695.099 178.367 695.099 177.269C695.099 176.496 694.875 175.763 694.427 175.071C693.98 174.339 693.267 173.606 692.291 172.874C691.355 172.101 690.134 171.307 688.629 170.494C686.594 169.354 684.926 168.256 683.624 167.198C682.362 166.099 681.426 164.96 680.816 163.78C680.246 162.599 679.961 161.318 679.961 159.934C679.961 158.103 680.389 156.475 681.243 155.051C682.138 153.627 683.339 152.508 684.844 151.694C686.35 150.88 688.039 150.473 689.91 150.473C691.172 150.473 692.433 150.657 693.695 151.023C694.956 151.389 696.034 151.898 696.93 152.549L698.028 151.084H699.615V160.3H697.235C696.299 157.981 695.322 156.313 694.305 155.295C693.328 154.278 692.128 153.769 690.704 153.769C689.565 153.769 688.649 154.075 687.957 154.685C687.306 155.295 686.981 156.109 686.981 157.126C686.981 158.266 687.489 159.344 688.507 160.361C689.524 161.379 691.172 162.498 693.451 163.718C695.648 164.899 697.418 166.058 698.761 167.198C700.144 168.337 701.141 169.517 701.752 170.738C702.362 171.958 702.667 173.301 702.667 174.766C702.667 177.574 701.65 179.832 699.615 181.541C697.621 183.25 694.936 184.105 691.558 184.105C689.809 184.105 688.181 183.881 686.675 183.433C685.17 182.945 683.929 182.253 682.952 181.358ZM331.471 251.105L304.432 212.59H304.187V238.836C304.187 241.522 304.33 243.516 304.615 244.818C304.94 246.079 305.551 246.914 306.446 247.321C307.382 247.727 308.745 247.972 310.535 248.053V250.495H292.407V248.053C294.401 247.972 295.886 247.727 296.863 247.321C297.88 246.914 298.552 246.1 298.877 244.879C299.243 243.658 299.427 241.787 299.427 239.264V214.727C299.427 212.407 299.264 210.637 298.938 209.417C298.653 208.196 298.043 207.341 297.107 206.853C296.212 206.324 294.849 206.019 293.018 205.937V203.496H310.047L334.645 238.775H334.889V215.154C334.889 212.468 334.726 210.495 334.401 209.233C334.116 207.931 333.526 207.077 332.631 206.67C331.736 206.222 330.372 205.978 328.541 205.937V203.496H346.669V205.937C344.675 205.978 343.17 206.222 342.153 206.67C341.176 207.077 340.505 207.891 340.138 209.111C339.813 210.332 339.65 212.204 339.65 214.727V251.105H331.471ZM376.398 242.682L378.107 244.818C374.404 249.009 369.786 251.105 364.252 251.105C360.915 251.105 357.985 250.413 355.462 249.03C352.94 247.646 350.966 245.734 349.542 243.292C348.158 240.81 347.467 237.962 347.467 234.747C347.467 231.37 348.199 228.399 349.664 225.836C351.169 223.231 353.245 221.197 355.89 219.732C358.535 218.267 361.566 217.534 364.984 217.534C369.298 217.534 372.655 218.715 375.055 221.075C377.456 223.394 378.657 226.629 378.657 230.78C378.657 231.431 378.555 231.838 378.351 232C378.148 232.122 377.578 232.183 376.642 232.183H356.988C356.907 232.387 356.846 232.651 356.805 232.977C356.765 233.302 356.744 233.709 356.744 234.198C356.744 236.843 357.131 239.142 357.904 241.095C358.718 243.007 359.837 244.493 361.261 245.551C362.726 246.608 364.435 247.137 366.388 247.137C368.097 247.137 369.786 246.751 371.454 245.978C373.163 245.205 374.811 244.106 376.398 242.682ZM357.416 228.765H366.266C367.934 228.765 368.992 228.684 369.44 228.521C369.888 228.318 370.111 227.87 370.111 227.178C370.111 225.388 369.603 223.923 368.585 222.784C367.568 221.644 366.286 221.075 364.74 221.075C362.99 221.075 361.424 221.807 360.04 223.272C358.697 224.696 357.823 226.527 357.416 228.765ZM385.612 221.502H381.157V218.755C383.557 218.063 385.592 217.005 387.26 215.581C388.929 214.157 390.17 212.55 390.984 210.759H394.097V218.145H401.116V221.502H394.097V240.24C394.097 242.722 394.381 244.513 394.951 245.612C395.521 246.67 396.436 247.199 397.698 247.199C398.512 247.199 399.203 247.036 399.773 246.71C400.383 246.344 400.892 245.774 401.299 245.001L402.581 246.771C401.441 249.66 398.756 251.105 394.524 251.105C391.716 251.105 389.519 250.454 387.932 249.152C386.386 247.85 385.612 246.018 385.612 243.658V221.502ZM416.243 251.105L407.881 226.019C407.474 224.717 407.006 223.679 406.477 222.906C405.948 222.133 405.338 221.563 404.646 221.197C403.954 220.83 403.14 220.627 402.204 220.586V218.145H419.661V220.586C418.196 220.627 417.179 220.851 416.609 221.258C416.04 221.624 415.755 222.275 415.755 223.211C415.755 223.618 415.816 224.106 415.938 224.676C416.101 225.205 416.263 225.815 416.426 226.507L420.271 240.79H420.516L429.061 218.145H434.066L440.475 240.79H440.78L445.663 228.155C445.948 227.463 446.151 226.853 446.273 226.324C446.436 225.754 446.558 225.245 446.639 224.798C446.721 224.31 446.762 223.882 446.762 223.516C446.762 222.458 446.416 221.705 445.724 221.258C445.032 220.81 444.096 220.586 442.916 220.586V218.145H456.039V220.586C455.307 220.586 454.696 220.668 454.208 220.83C453.72 220.993 453.231 221.38 452.743 221.99C452.296 222.601 451.767 223.536 451.156 224.798C450.587 226.059 449.874 227.789 449.02 229.986L440.597 251.105H435.775L429.305 229.437H429.061L420.821 251.105H416.243ZM473.744 217.534C476.186 217.534 478.485 217.941 480.641 218.755C482.798 219.569 484.711 220.729 486.379 222.234C488.047 223.699 489.349 225.449 490.285 227.484C491.262 229.477 491.75 231.675 491.75 234.076C491.75 236.558 491.262 238.836 490.285 240.912C489.349 242.987 488.047 244.798 486.379 246.344C484.711 247.85 482.798 249.03 480.641 249.884C478.485 250.698 476.186 251.105 473.744 251.105C471.343 251.105 469.065 250.698 466.908 249.884C464.792 249.03 462.9 247.85 461.232 246.344C459.604 244.798 458.322 242.987 457.386 240.912C456.45 238.836 455.982 236.558 455.982 234.076C455.982 230.861 456.796 228.013 458.424 225.53C460.052 223.048 462.208 221.095 464.894 219.671C467.579 218.247 470.53 217.534 473.744 217.534ZM473.744 221.075C472.117 221.075 470.672 221.624 469.411 222.723C468.19 223.821 467.234 225.347 466.542 227.3C465.891 229.254 465.565 231.532 465.565 234.137C465.565 238.165 466.298 241.38 467.763 243.78C469.268 246.181 471.262 247.382 473.744 247.382C476.308 247.382 478.342 246.181 479.848 243.78C481.394 241.339 482.167 238.124 482.167 234.137C482.167 231.532 481.821 229.254 481.13 227.3C480.438 225.347 479.461 223.821 478.2 222.723C476.938 221.624 475.453 221.075 473.744 221.075ZM508.545 238.104V241.034C508.545 243.109 508.687 244.655 508.972 245.673C509.257 246.649 509.867 247.28 510.803 247.565C511.739 247.85 513.143 248.012 515.015 248.053V250.495H494.628V248.053C496.297 247.931 497.497 247.707 498.23 247.382C499.003 247.056 499.491 246.405 499.695 245.428C499.939 244.452 500.061 242.946 500.061 240.912V233.465C500.061 230.942 499.979 228.928 499.817 227.422C499.695 225.876 499.43 224.717 499.023 223.943C498.657 223.13 498.087 222.601 497.314 222.356C496.582 222.072 495.605 221.929 494.384 221.929V219.793L506.592 217.534L507.568 224.554H507.812C508.911 222.397 510.356 220.688 512.146 219.427C513.936 218.165 515.829 217.534 517.823 217.534C519.369 217.534 520.63 217.921 521.607 218.694C522.583 219.467 523.072 220.444 523.072 221.624C523.072 222.926 522.685 224.025 521.912 224.92C521.18 225.815 520.162 226.263 518.86 226.263C518.046 226.263 517.334 226.059 516.724 225.652C516.154 225.245 515.625 224.839 515.137 224.432C514.649 224.025 514.12 223.821 513.55 223.821C512.777 223.821 512.044 224.33 511.353 225.347C510.661 226.365 510.091 227.728 509.644 229.437C509.318 230.657 509.054 232.041 508.85 233.587C508.647 235.093 508.545 236.598 508.545 238.104ZM522.953 250.495V248.053C524.458 248.012 525.597 247.809 526.371 247.443C527.144 247.036 527.673 246.324 527.958 245.306C528.242 244.289 528.385 242.824 528.385 240.912V215.032C528.385 212.346 528.324 210.19 528.202 208.562C528.12 206.934 527.734 205.815 527.042 205.205C526.635 204.839 526.106 204.615 525.455 204.534C524.845 204.452 524.072 204.411 523.136 204.411V202.153L536.747 199.834V233.77L542.606 228.216C544.722 226.222 546.228 224.717 547.123 223.699C548.018 222.682 548.466 221.97 548.466 221.563C548.466 221.197 548.079 220.953 547.306 220.83C546.574 220.668 545.19 220.586 543.156 220.586V218.145H559.819V220.586C558.802 220.586 557.866 220.708 557.011 220.953C556.157 221.156 555.323 221.522 554.509 222.051C553.695 222.54 552.82 223.231 551.884 224.126L545.963 229.681L556.523 244.635C557.174 245.489 557.784 246.181 558.354 246.71C558.924 247.199 559.554 247.544 560.246 247.748C560.979 247.951 561.833 248.053 562.81 248.053V250.495H543.827V248.053C545.129 248.053 546.045 248.012 546.574 247.931C547.103 247.809 547.367 247.605 547.367 247.321C547.367 247.036 547.144 246.486 546.696 245.673C546.248 244.859 545.496 243.679 544.438 242.132L539.799 235.174L536.747 238.104V240.484C536.747 242.6 536.849 244.208 537.052 245.306C537.296 246.364 537.723 247.097 538.334 247.504C538.944 247.87 539.819 248.053 540.958 248.053V250.495H522.953Z" fill="white"/>
<defs>
<clipPath id="clip0_264_38">
<rect width="249.525" height="284.159" fill="white" transform="translate(1.2421e-05 0.00231966)"/>
</clipPath>
</defs>
</svg>
