<svg width="250" height="285" viewBox="0 0 250 285" fill="none" xmlns="http://www.w3.org/2000/svg">
<mask id="mask0_1102_14" style="mask-type:luminance" maskUnits="userSpaceOnUse" x="0" y="0" width="250" height="285">
<path d="M249.525 0H0V284.159H249.525V0Z" fill="white"/>
</mask>
<g mask="url(#mask0_1102_14)">
<path d="M126.515 84.0213C139.205 71.9997 139.205 50.992 126.515 38.9704C125.485 37.9943 123.854 37.9943 122.824 38.9704C110.134 50.992 110.134 71.9997 122.824 84.0213C123.854 84.9974 125.485 84.9974 126.515 84.0213Z" fill="#F9C742"/>
<path d="M176.433 92.3533C177.958 92.4335 179.228 91.2032 179.228 89.6788V79.3823C179.228 77.9916 178.172 76.8148 176.781 76.7212C154.77 75.1165 134.832 81.5887 124.71 97.8091C114.587 81.5887 94.6491 75.1032 72.6385 76.7212C71.2478 76.8282 70.1914 78.0049 70.1914 79.3823V89.6788C70.1914 91.2032 71.4618 92.4201 72.9862 92.3533C104.865 90.7486 114.48 102.409 117.128 121.585C106.136 111.93 90.0357 108.159 72.6385 109.43C71.2478 109.537 70.1914 110.714 70.1914 112.091V122.387C70.1914 123.912 71.4618 125.129 72.9862 125.062C108.155 123.283 116.218 137.658 117.743 160.458V191.054C117.743 191.054 117.743 191.16 117.743 191.214H131.663C131.663 191.214 131.663 191.107 131.663 191.04V160.458C133.188 137.658 141.251 123.283 176.42 125.062C177.944 125.142 179.215 123.912 179.215 122.387V109.63C160.881 107.812 143.765 111.489 132.265 121.598C134.913 102.409 144.514 90.7352 176.407 92.3399L176.433 92.3533Z" fill="#F9C742"/>
<path d="M231.231 172.13C168.529 142.216 80.941 142.096 18.0918 171.661C19.3889 177.037 20.9936 182.292 22.8924 187.401C41.2791 177.666 62.0996 170.953 83.8294 167.262L52.2711 234.939C55.6141 238.522 59.1577 241.946 62.8618 245.168L100.197 165.096C116.457 163.491 133.012 163.531 149.273 165.216L186.554 245.168C190.258 241.946 193.802 238.536 197.145 234.939L165.68 167.476C187.33 171.26 208.057 178.067 226.337 187.895C228.249 182.774 229.894 177.505 231.217 172.116L231.231 172.13Z" fill="#F9C742"/>
<path d="M117.756 164.013V274.762C122.436 276.594 126.996 276.594 131.676 274.762V164.04C127.076 163.893 122.369 163.893 117.756 164.013Z" fill="#F9C742"/>
<path d="M119.856 1.033C84.8343 16.5581 42.8056 35.1855 7.56994 50.8042C3.1705 52.7566 0.348968 57.1293 0.415829 61.9299C0.816994 92.6725 -2.65977 147.713 5.37691 171.809C19.6718 227.264 66.3273 271.94 122.263 283.895C123.881 284.242 125.566 284.242 127.184 283.895C182.919 271.967 229.481 227.571 243.923 172.344C252.214 148.261 248.777 92.619 249.071 61.8897C249.111 57.1025 246.29 52.7432 241.917 50.8042L129.604 1.033C126.502 -0.344334 122.958 -0.344334 119.856 1.033ZM235.338 131.8C236.033 194.328 192.026 252.163 131.69 268.41C86.0913 271.218 37.3364 222.276 22.9078 181.049C10.2176 152.807 14.7642 99.987 14.2293 67.5462C14.1892 64.8584 15.7403 62.4113 18.2008 61.3147C39.4358 51.9007 101.79 24.2605 122.036 15.2877C123.761 14.5255 125.713 14.5255 127.438 15.2877C148.004 24.4076 210.051 51.9007 231.38 61.3549C233.8 62.4246 235.351 64.8182 235.351 67.4659V131.786L235.338 131.8Z" fill="#F9C742"/>
</g>
</svg>
